/* XPM */
static char * close_prelight_xpm[] = {
"24 24 24 1",
" 	c #2E2E32",
".	c #313135",
"+	c #3B3B3F",
"@	c #444448",
"#	c #48484C",
"$	c #4C4C4F",
"%	c #414145",
"&	c #4D4D50",
"*	c #414144",
"=	c #37373B",
"-	c #4B4B4F",
";	c #38383B",
">	c #323235",
",	c #636365",
"'	c #636366",
")	c #F0F0F0",
"!	c #7A7A7C",
"~	c #79797B",
"{	c #777779",
"]	c #7B7B7D",
"^	c #F3F3F3",
"/	c #F4F4F4",
"(	c #444447",
"_	c #404044",
"       .+@#$$#@+.       ",
"     .%&&&&&&&&&&*.     ",
"    =-&&&&&&&&&&&&-=    ",
"   +&&&&&&&&&&&&&&&&+   ",
"  ;&&&&&&&&&&&&&&&&&&=  ",
" .-&&&&&&&&&&&&&&&&&&-. ",
" %&&&&&&&&&&&&&&&&&&&&* ",
">&&&&&&&,&&&&&&,&&&&&&&.",
"+&&&&&&')!&&&&~)'&&&&&&+",
"@&&&&&&&{)]&&{)]&&&&&&&@",
"#&&&&&&&&{)]{)]&&&&&&&&#",
"-&&&&&&&&&{^/]&&&&&&&&&-",
"-&&&&&&&&&{^/]&&&&&&&&&-",
"#&&&&&&&&{)]{)]&&&&&&&&#",
"@&&&&&&&{)]&&{)]&&&&&&&(",
"+&&&&&&')!&&&&!)'&&&&&&+",
".&&&&&&&'&&&&&&'&&&&&&&.",
" *&&&&&&&&&&&&&&&&&&&&_ ",
" .-&&&&&&&&&&&&&&&&&&-. ",
"  =&&&&&&&&&&&&&&&&&&=  ",
"   +&&&&&&&&&&&&&&&&+   ",
"    =-&&&&&&&&&&&&-=    ",
"     .*&&&&&&&&&&_.     ",
"       .+@#--#@+.       "};
