/* XPM */
static char * close_inactive_xpm[] = {
"24 24 21 1",
" 	c #232327",
".	c #242428",
"+	c #28282C",
"@	c #2B2B2F",
"#	c #2C2C30",
"$	c #2E2E31",
"%	c #2A2A2E",
"&	c #2E2E32",
"*	c #26262A",
"=	c #2D2D31",
"-	c #2A2A2D",
";	c #3A3A3E",
">	c #88888A",
",	c #46464A",
"'	c #47474A",
")	c #28282B",
"!	c #454549",
"~	c #48484B",
"{	c #8A8A8C",
"]	c #8B8B8C",
"^	c #29292D",
"       .+@#$$#@+.       ",
"     .%&&&&&&&&&&%.     ",
"    *=&&&&&&&&&&&&=*    ",
"   +&&&&&&&&&&&&&&&&+   ",
"  *&&&&&&&&&&&&&&&&&&*  ",
" .=&&&&&&&&&&&&&&&&&&=. ",
" %&&&&&&&&&&&&&&&&&&&&- ",
".&&&&&&&;&&&&&&;&&&&&&&.",
"+&&&&&&;>,&&&&'>;&&&&&&)",
"@&&&&&&&!>~&&!>~&&&&&&&@",
"#&&&&&&&&!>~!>~&&&&&&&&#",
"$&&&&&&&&&!{]~&&&&&&&&&$",
"$&&&&&&&&&!{{~&&&&&&&&&$",
"#&&&&&&&&!>~!>~&&&&&&&&#",
"@&&&&&&&!>~&&!>~&&&&&&&@",
"+&&&&&&;>,&&&&,>;&&&&&&)",
".&&&&&&&;&&&&&&;&&&&&&&.",
" %&&&&&&&&&&&&&&&&&&&&- ",
" .=&&&&&&&&&&&&&&&&&&=. ",
"  *&&&&&&&&&&&&&&&&&&*  ",
"   +&&&&&&&&&&&&&&&&)   ",
"    *=&&&&&&&&&&&&=*    ",
"     .-&&&&&&&&&&^.     ",
"       .)@#$$#@).       "};
