/* XPM */
static char * close_active_mod_xpm[] = {
"24 24 23 1",
" 	c #2E2E32",
".	c #303034",
"+	c #37373B",
"@	c #3D3D40",
"#	c #3F3F43",
"$	c #424245",
"%	c #37373A",
"&	c #3A3A3E",
"*	c #424246",
"=	c #434346",
"-	c #343438",
";	c #414145",
">	c #5A5A5C",
",	c #5B5B5D",
"'	c #EFEFEF",
")	c #727274",
"!	c #717174",
"~	c #36363A",
"{	c #6F6F72",
"]	c #747476",
"^	c #3C3C40",
"/	c #F2F2F3",
"(	c #F3F3F3",
"       .+@#$$#@%.       ",
"     .&*========*&.     ",
"    -;============;-    ",
"   +*==============*%   ",
"  -*================*-  ",
" .;==================;. ",
" &====================& ",
".*======>======>======*.",
"+======,')====!',======~",
"@======={']=={']=======^",
"#========{']{']========#",
";========={/(]=========;",
";========={/(]=========;",
"#========{']{']========#",
"@======={']=={']=======^",
"%======,')====)',======~",
".*======,======,======*.",
" &====================& ",
" .;==================;. ",
"  -*================*-  ",
"   +*==============*~   ",
"    -;============;-    ",
"     .&*========*&.     ",
"       .~^#;;#^~.       "};
