/* XPM */
static char * close_pressed_xpm[] = {
"24 24 30 1",
" 	c #2E2E32",
".	c #353539",
"+	c #48484C",
"@	c #5B5B5E",
"#	c #636366",
"$	c #6A6A6D",
"%	c #48484B",
"&	c #343438",
"*	c #545457",
"=	c #6B6B6E",
"-	c #6C6C6F",
";	c #535357",
">	c #414144",
",	c #69696C",
"'	c #404044",
")	c #49494C",
"!	c #414145",
"~	c #7E7E81",
"{	c #353538",
"]	c #F2F2F3",
"^	c #919193",
"/	c #909093",
"(	c #5A5A5D",
"_	c #8F8F91",
":	c #929294",
"<	c #F5F5F5",
"[	c #F6F6F6",
"}	c #535356",
"|	c #525256",
"1	c #626265",
"       .+@#$$#@%.       ",
"     &*=--------=;&     ",
"    >,------------,'    ",
"   )----------------+   ",
"  !------------------>  ",
" &,------------------,& ",
" *--------------------; ",
".=------~------~------={",
"+------~]^----/]~------%",
"(-------_]:--_]:-------(",
"#--------_]:_]:--------#",
",---------_<[:---------,",
",---------_<[:---------,",
"#--------_]:_]:--------#",
"(-------_]:--_]:-------(",
"+------~]^----^]~------%",
".=------~------~------=&",
" *--------------------} ",
" &,------------------,& ",
"  >------------------'  ",
"   +----------------%   ",
"    ',------------,'    ",
"     &;=--------=|&     ",
"       {%(1,,1(%{       "};
