/* XPM */
static char * hide_prelight_xpm[] = {
"24 24 18 1",
" 	c #2E2E32",
".	c #313135",
"+	c #3B3B3F",
"@	c #444448",
"#	c #48484C",
"$	c #4C4C4F",
"%	c #414145",
"&	c #4D4D50",
"*	c #4D4D51",
"=	c #414144",
"-	c #37373B",
";	c #4B4B4F",
">	c #38383B",
",	c #323235",
"'	c #49494C",
")	c #FFFFFF",
"!	c #444447",
"~	c #404044",
"       .+@#$$#@+.       ",
"     .%&********&=.     ",
"    -;************;-    ",
"   +&**************&+   ",
"  >&****************&-  ",
" .;******************;. ",
" %********************= ",
",&********************&.",
"+**********************+",
"@**********************@",
"'**********************#",
"$**********************$",
"$*******))))))))*******$",
"'**********************#",
"@**********************!",
"+**********************+",
".&********************&.",
" =********************~ ",
" .;******************;. ",
"  -&****************&-  ",
"   +&**************&+   ",
"    -;************;-    ",
"     .=&********&~.     ",
"       .+@#$$#@+.       "};
