/* XPM */
static char * maximize_toggled_active_xpm[] = {
"24 24 14 1",
" 	c #2E2E32",
".	c #303034",
"+	c #37373B",
"@	c #3D3D41",
"#	c #404044",
"$	c #424246",
"%	c #3B3B3F",
"&	c #434346",
"*	c #434347",
"=	c #3B3B3E",
"-	c #343438",
";	c #FFFFFF",
">	c #3A3A3E",
",	c #404043",
"       .+@#$$#@+.       ",
"     .%&********&=.     ",
"    -$************$-    ",
"   +****************+   ",
"  -******************-  ",
" .$******************$. ",
" %********************= ",
".&********************&.",
"+*********;;;;;;*******+",
"@*********;****;*******@",
"#*******;;;;;;*;*******#",
"$*******;****;*;*******$",
"$*******;****;*;*******$",
"#*******;****;;;*******#",
"@*******;****;*********@",
"+*******;;;;;;*********+",
".&********************&.",
" %********************= ",
" .$******************$. ",
"  -******************-  ",
"   +****************+   ",
"    -$************$-    ",
"     .=&********&>.     ",
"       .+@,$$,@+.       "};
