/* XPM */
static char * maximize_toggled_inactive_xpm[] = {
"24 24 12 1",
" 	c #222226",
".	c #232327",
"+	c #27272B",
"@	c #2A2A2E",
"#	c #2B2B2F",
"$	c #2D2D30",
"%	c #29292D",
"&	c #2D2D31",
"*	c #252529",
"=	c #919193",
"-	c #2C2C2F",
";	c #29292C",
"       .+@#$$#@+.       ",
"     .%&&&&&&&&&&%.     ",
"    *$&&&&&&&&&&&&$*    ",
"   +&&&&&&&&&&&&&&&&+   ",
"  *&&&&&&&&&&&&&&&&&&*  ",
" .$&&&&&&&&&&&&&&&&&&$. ",
" %&&&&&&&&&&&&&&&&&&&&% ",
".&&&&&&&&&&&&&&&&&&&&&&.",
"+&&&&&&&&&======&&&&&&&+",
"@&&&&&&&&&=&&&&=&&&&&&&@",
"-&&&&&&&======&=&&&&&&&#",
"$&&&&&&&=&&&&=&=&&&&&&&$",
"$&&&&&&&=&&&&=&=&&&&&&&$",
"-&&&&&&&=&&&&===&&&&&&&#",
"@&&&&&&&=&&&&=&&&&&&&&&@",
"+&&&&&&&======&&&&&&&&&+",
".&&&&&&&&&&&&&&&&&&&&&&.",
" %&&&&&&&&&&&&&&&&&&&&; ",
" .$&&&&&&&&&&&&&&&&&&$. ",
"  *&&&&&&&&&&&&&&&&&&*  ",
"   +&&&&&&&&&&&&&&&&+   ",
"    *$&&&&&&&&&&&&$*    ",
"     .%&&&&&&&&&&;.     ",
"       .+@#$$#@+.       "};
