/* XPM */
static char * maximize_pressed_xpm[] = {
"24 24 23 1",
" 	c #2E2E32",
".	c #353539",
"+	c #48484C",
"@	c #5B5B5E",
"#	c #636366",
"$	c #6A6A6D",
"%	c #48484B",
"&	c #343438",
"*	c #545457",
"=	c #6B6B6E",
"-	c #6C6C6F",
";	c #535357",
">	c #414144",
",	c #69696C",
"'	c #404044",
")	c #49494C",
"!	c #414145",
"~	c #353538",
"{	c #FFFFFF",
"]	c #5A5A5D",
"^	c #535356",
"/	c #525256",
"(	c #626265",
"       .+@#$$#@%.       ",
"     &*=--------=;&     ",
"    >,------------,'    ",
"   )----------------+   ",
"  !------------------>  ",
" &,------------------,& ",
" *--------------------; ",
".=--------------------=~",
"+-------{{{{{{{{-------%",
"]-------{------{-------]",
"#-------{------{-------#",
",-------{------{-------,",
",-------{------{-------,",
"#-------{------{-------#",
"]-------{------{-------]",
"+-------{{{{{{{{-------%",
".=--------------------=&",
" *--------------------^ ",
" &,------------------,& ",
"  >------------------'  ",
"   +----------------%   ",
"    ',------------,'    ",
"     &;=--------=/&     ",
"       ~%](,,(]%~       "};
