/* XPM */
static char * title_1_active_xpm[] = {
"4 38 3 1",
" 	c #3A3A3C",
".	c #2E2E32",
"+	c #1D1D22",
"    ",
"....",
"....",
"....",
"....",
"....",
"....",
"....",
"....",
"....",
"....",
"....",
"....",
"....",
"....",
"....",
"....",
"....",
"....",
"....",
"....",
"....",
"....",
"....",
"....",
"....",
"....",
"....",
"....",
"....",
"....",
"....",
"....",
"....",
"....",
"....",
"....",
"++++"};
