/* XPM */
static char * close_active_xpm[] = {
"24 24 21 1",
" 	c #EBEBED",
".	c #E9E9EB",
"+	c #E3E3E5",
"@	c #DEDEE0",
"#	c #DBDBDD",
"$	c #D9D9DB",
"%	c #E0E0E2",
"&	c #D8D8DA",
"*	c #E5E5E7",
"=	c #E6E6E7",
"-	c #D9D9DA",
";	c #C4C4C6",
">	c #3E3E3F",
",	c #AEAEAF",
"'	c #AFAFB0",
")	c #C3C3C5",
"!	c #B0B0B2",
"~	c #ACACAE",
"{	c #ADADAE",
"]	c #AFAFB1",
"^	c #E6E6E8",
"       .+@#$$#@+.       ",
"     .%$&&&&&&&&$%.     ",
"    *$&&&&&&&&&&&&$=    ",
"   +-&&&&&&&&&&&&&&-+   ",
"  *-&&&&&&&&&&&&&&&&-*  ",
" .$&&&&&&&&&&&&&&&&&&$. ",
" %&&&&&;&&&&&&&&;&&&&&% ",
".$&&&&;>,&&&&&&'>)&&&&$.",
"+&&&&&&!>~&&&&!>~&&&&&&+",
"@&&&&&&&!>~&&!>~&&&&&&&@",
"#&&&&&&&&!>~!>~&&&&&&&&#",
"$&&&&&&&&&,>>{&&&&&&&&&$",
"$&&&&&&&&&]>>,&&&&&&&&&$",
"#&&&&&&&&!>~!>~&&&&&&&&#",
"@&&&&&&&!>~&&!>~&&&&&&&@",
"+&&&&&&!>~&&&&!>~&&&&&&+",
".$&&&&;>{&&&&&&,>)&&&&$.",
" %&&&&&)&&&&&&&&)&&&&&% ",
" .$&&&&&&&&&&&&&&&&&&$. ",
"  *-&&&&&&&&&&&&&&&&-^  ",
"   +-&&&&&&&&&&&&&&-+   ",
"    =$&&&&&&&&&&&&$^    ",
"     .%$&&&&&&&&$%.     ",
"       .+@#$$#@+.       "};
