/* XPM */
static char * close_prelight_xpm[] = {
"24 24 25 1",
" 	c #EBEBED",
".	c #E8E8EA",
"+	c #DFDFE1",
"@	c #D7D7D9",
"#	c #D3D3D5",
"$	c #D0D0D2",
"%	c #DADADC",
"&	c #D0D0D1",
"*	c #CFCFD1",
"=	c #E3E3E5",
"-	c #D1D1D2",
";	c #E2E2E4",
">	c #D1D1D3",
",	c #BCBCBE",
"'	c #3D3D3E",
")	c #A7A7A9",
"!	c #A8A8A9",
"~	c #BBBBBD",
"{	c #A9A9AB",
"]	c #A5A5A7",
"^	c #E0E0E1",
"/	c #A6A6A8",
"(	c #A8A8AA",
"_	c #DBDBDD",
":	c #D4D4D5",
"       .+@#$$#@+.       ",
"     .%&********&%.     ",
"    =-************-=    ",
"   +****************+   ",
"  ;******************=  ",
" .>******************>. ",
" %*****,********,*****% ",
".&****,')******!'~****&.",
"+******{']****{']******^",
"@*******{']**{']*******@",
"#********{']{']********#",
"-*********)''/*********-",
"-*********('')*********-",
"#********{']{']********#",
"@*******{']**{']*******@",
"+******{']****{']******^",
".&****,'/******)'~****&.",
" %*****~********~*****% ",
" .>******************>. ",
"  =******************=  ",
"   +****************^   ",
"    =-************>=    ",
"     .%&********&_.     ",
"       .^@:--:@^.       "};
