/* XPM */
static char * close_pressed_xpm[] = {
"24 24 31 1",
" 	c #EBEBED",
".	c #E5E5E7",
"+	c #D3D3D5",
"@	c #C3C3C4",
"#	c #BCBCBD",
"$	c #B5B5B7",
"%	c #C3C3C5",
"&	c #D4D4D6",
"*	c #E6E6E7",
"=	c #C9C9CB",
"-	c #B4B4B5",
";	c #B3B3B5",
">	c #DADADC",
",	c #B6B6B8",
"'	c #E6E6E8",
")	c #A3A3A5",
"!	c #CACACB",
"~	c #3A3A3C",
"{	c #929294",
"]	c #939394",
"^	c #A3A3A4",
"/	c #949495",
"(	c #919192",
"_	c #BBBBBD",
":	c #B6B6B7",
"<	c #919193",
"[	c #929295",
"}	c #C4C4C5",
"|	c #CACACC",
"1	c #DBDBDD",
"2	c #BCBCBE",
"       .+@#$$#%&.       ",
"     *=-;;;;;;;;-=*     ",
"    >,;;;;;;;;;;;;,>    ",
"   +;;;;;;;;;;;;;;;-+   ",
"  >-;;;;;;;;;;;;;;;;->  ",
" .,;;;;;;;;;;;;;;;;;;,' ",
" =;;;;;);;;;;;;;);;;;;! ",
".-;;;;)~{;;;;;;]~^;;;;-.",
"+;;;;;;/~(;;;;/~(;;;;;;&",
"%;;;;;;;/~(;;/~(;;;;;;;%",
"_;;;;;;;;/~(/~(;;;;;;;;_",
":;;;;;;;;;{~~<;;;;;;;;;:",
":;;;;;;;;;[~~{;;;;;;;;;:",
"_;;;;;;;;/~(/~(;;;;;;;;_",
"%;;;;;;;/~(;;/~(;;;;;;;}",
"+;;;;;;/~(;;;;/~(;;;;;;&",
".-;;;;)~<;;;;;;{~^;;;;-*",
" =;;;;;^;;;;;;;;^;;;;;| ",
" *,;;;;;;;;;;;;;;;;;;,' ",
"  >-;;;;;;;;;;;;;;;;-1  ",
"   +-;;;;;;;;;;;;;;-&   ",
"    >,;;;;;;;;;;;;,1    ",
"     *!-;;;;;;;;-|*     ",
"       .&%2::2%&.       "};
