/* XPM */
static char * close_inactive_xpm[] = {
"24 24 15 1",
" 	c #FAFAFB",
".	c #F9F9FA",
"+	c #F6F6F7",
"@	c #F3F3F4",
"#	c #F1F1F2",
"$	c #F0F0F1",
"%	c #F4F4F5",
"&	c #F7F7F8",
"*	c #E5E5E6",
"=	c #9C9C9D",
"-	c #D9D9D9",
";	c #DADADA",
">	c #DBDBDB",
",	c #D8D8DA",
"'	c #D9D9DA",
"       .+@#$$#@+.       ",
"     .%$$$$$$$$$$%.     ",
"    &$$$$$$$$$$$$$$&    ",
"   +$$$$$$$$$$$$$$$$+   ",
"  &$$$$$$$$$$$$$$$$$$&  ",
" .$$$$$$$$$$$$$$$$$$$$. ",
" %$$$$$*$$$$$$$$*$$$$$% ",
".$$$$$*=-$$$$$$;=*$$$$$.",
"+$$$$$$>=,$$$$>=,$$$$$$+",
"@$$$$$$$>=,$$>=,$$$$$$$@",
"#$$$$$$$$>=,>=,$$$$$$$$#",
"$$$$$$$$$$-=='$$$$$$$$$$",
"$$$$$$$$$$;==-$$$$$$$$$$",
"#$$$$$$$$>=,>=,$$$$$$$$#",
"@$$$$$$$>=,$$>=,$$$$$$$@",
"+$$$$$$>=,$$$$>=,$$$$$$+",
".$$$$$*='$$$$$$-=*$$$$$.",
" %$$$$$*$$$$$$$$*$$$$$% ",
" .$$$$$$$$$$$$$$$$$$$$. ",
"  &$$$$$$$$$$$$$$$$$$&  ",
"   +$$$$$$$$$$$$$$$$+   ",
"    &$$$$$$$$$$$$$$&    ",
"     .%$$$$$$$$$$%.     ",
"       .+@#$$#@+.       "};
