/* XPM */
static char * maximize_prelight_xpm[] = {
"24 24 15 1",
" 	c #EBEBED",
".	c #E8E8EA",
"+	c #DFDFE1",
"@	c #D7D7D9",
"#	c #D3D3D5",
"$	c #D0D0D2",
"%	c #DADADC",
"&	c #CFCFD1",
"*	c #E3E3E4",
"=	c #E3E3E5",
"-	c #E2E2E4",
";	c #D1D1D2",
">	c #2F2F30",
",	c #CECED0",
"'	c #DBDBDD",
"       .+@#$$#@+.       ",
"     .%&&&&&&&&&&%.     ",
"    *$&&&&&&&&&&&&$=    ",
"   +&&&&&&&&&&&&&&&&+   ",
"  -&&&&&&&&&&&&&&&&&&=  ",
" .;&&&&&&&&&&&&&&&&&&;. ",
" %&&&&&&&&&&&&&&&&&&&&% ",
".&&&&&&>>>>>>>>>>,&&&&&.",
"+&&&&&&>,&&&&&&&>,&&&&&+",
"@&&&&&&>,&&&&&&&>,&&&&&@",
"#&&&&&&>,&&&&&&&>,&&&&&#",
"$&&&&&&>,&&&&&&&>,&&&&&$",
"$&&&&&&>,&&&&&&&>,&&&&&$",
"#&&&&&&>,&&&&&&&>,&&&&&#",
"@&&&&&&>,&&&&&&&>,&&&&&@",
"+&&&&&&>,&&&&&&&>,&&&&&+",
".&&&&&&>>>>>>>>>>,&&&&&.",
" %&&&&&&&&&&&&&&&&&&&&% ",
" .;&&&&&&&&&&&&&&&&&&;. ",
"  =&&&&&&&&&&&&&&&&&&=  ",
"   +&&&&&&&&&&&&&&&&+   ",
"    =$&&&&&&&&&&&&;=    ",
"     .%&&&&&&&&&&'.     ",
"       .+@#$$#@+.       "};
