/* XPM */
static char * maximize_pressed_xpm[] = {
"24 24 26 1",
" 	c #EBEBED",
".	c #E5E5E7",
"+	c #D3D3D5",
"@	c #C3C3C5",
"#	c #BCBCBE",
"$	c #B5B5B7",
"%	c #D4D4D6",
"&	c #E6E6E7",
"*	c #C9C9CB",
"=	c #B4B4B6",
"-	c #B3B3B5",
";	c #DADADC",
">	c #B6B6B8",
",	c #DBDBDC",
"'	c #B4B4B5",
")	c #D4D4D5",
"!	c #E6E6E8",
"~	c #CACACB",
"{	c #2F2F30",
"]	c #B2B2B4",
"^	c #C4C4C5",
"/	c #BBBBBD",
"(	c #BCBCBD",
"_	c #C4C4C6",
":	c #CACACC",
"<	c #DBDBDD",
"       .+@#$$#@%.       ",
"     &*=--------=*&     ",
"    ;>------------>,    ",
"   +'--------------')   ",
"  ;'----------------';  ",
" .>------------------>! ",
" *--------------------~ ",
".=-----{{{{{{{{{{]----=.",
"+------{]-------{]-----%",
"@------{]-------{]-----^",
"/------{]-------{]-----(",
">------{]-------{]----->",
">------{]-------{]----->",
"/------{]-------{]-----(",
"@------{]-------{]-----_",
")------{]-------{]-----%",
".=-----{{{{{{{{{{]----=&",
" *--------------------: ",
" &>------------------>! ",
"  ;'----------------'<  ",
"   +'--------------'%   ",
"    ,>------------><    ",
"     &~=--------=:&     ",
"       .%^#>>#^%.       "};
