/* XPM */
static char * menu_prelight_xpm[] = {
"22 22 4 1",
" 	c #EBEBED",
".	c #E3E3E4",
"+	c #DADADC",
"@	c #CFCFD1",
" .+@@@@@@@@@@@@@@@@+. ",
".+@@@@@@@@@@@@@@@@@@+.",
"+@@@@@@@@@@@@@@@@@@@@+",
"@@@@@@@@@@@@@@@@@@@@@@",
"@@@@@@@@@@@@@@@@@@@@@@",
"@@@@@@@@@@@@@@@@@@@@@@",
"@@@@@@@@@@@@@@@@@@@@@@",
"@@@@@@@@@@@@@@@@@@@@@@",
"@@@@@@@@@@@@@@@@@@@@@@",
"@@@@@@@@@@@@@@@@@@@@@@",
"@@@@@@@@@@@@@@@@@@@@@@",
"@@@@@@@@@@@@@@@@@@@@@@",
"@@@@@@@@@@@@@@@@@@@@@@",
"@@@@@@@@@@@@@@@@@@@@@@",
"@@@@@@@@@@@@@@@@@@@@@@",
"@@@@@@@@@@@@@@@@@@@@@@",
"@@@@@@@@@@@@@@@@@@@@@@",
"@@@@@@@@@@@@@@@@@@@@@@",
"@@@@@@@@@@@@@@@@@@@@@@",
"+@@@@@@@@@@@@@@@@@@@@+",
".+@@@@@@@@@@@@@@@@@@+.",
" .+@@@@@@@@@@@@@@@@+. "};
