/* XPM */
static char * shade_toggled_active_xpm[] = {
"24 24 13 1",
" 	c #EBEBED",
".	c #E9E9EB",
"+	c #E3E3E5",
"@	c #DEDEE0",
"#	c #DBDBDD",
"$	c #D9D9DB",
"%	c #E0E0E2",
"&	c #D8D8DA",
"*	c #E5E5E7",
"=	c #E6E6E7",
"-	c #D9D9DA",
";	c #3E3E3F",
">	c #E6E6E8",
"       .+@#$$#@+.       ",
"     .%$&&&&&&&&$%.     ",
"    *$&&&&&&&&&&&&$=    ",
"   +-&&&&&&&&&&&&&&-+   ",
"  *-&&&&&&&&&&&&&&&&-*  ",
" .$&&&&&&&&&&&&&&&&&&$. ",
" %&&&&&&&&&&&&&&&&&&&&% ",
".$&&&&&&&&&&&&&&&&&&&&$.",
"+&&&&&&&&&&&&&&&&&&&&&&+",
"@&&&&&&&&&&&&&&&&&&&&&&@",
"#&&&&&&;&&&&&&&&;&&&&&&#",
"$&&&&&&&;&&&&&&;&&&&&&&$",
"$&&&&&&&&;&&&&;&&&&&&&&$",
"#&&&&&&&&&;&&;&&&&&&&&&#",
"@&&&&&&&&&&;;&&&&&&&&&&@",
"+&&&&&&&&&&&&&&&&&&&&&&+",
".$&&&&&&&&&&&&&&&&&&&&$.",
" %&&&&&&&&&&&&&&&&&&&&% ",
" .$&&&&&&&&&&&&&&&&&&$. ",
"  *-&&&&&&&&&&&&&&&&->  ",
"   +-&&&&&&&&&&&&&&-+   ",
"    =$&&&&&&&&&&&&$>    ",
"     .%$&&&&&&&&$%.     ",
"       .+@#$$#@+.       "};
