/* XPM */
static char * title_1_inactive_xpm[] = {
"4 38 3 1",
" 	c #EBEBED",
".	c #FAFAFB",
"+	c #E4E4E6",
"    ",
"....",
"....",
"....",
"....",
"....",
"....",
"....",
"....",
"....",
"....",
"....",
"....",
"....",
"....",
"....",
"....",
"....",
"....",
"....",
"....",
"....",
"....",
"....",
"....",
"....",
"....",
"....",
"....",
"....",
"....",
"....",
"....",
"....",
"....",
"....",
"....",
"++++"};
