/* XPM */
static char * top_left_inactive_xpm[] = {
"12 38 4 1",
" 	c None",
".	c #EBEBED",
"+	c #FAFAFB",
"@	c #E4E4E6",
"            ",
"         ...",
"       ..+++",
"      .+++++",
"     .++++++",
"    .+++++++",
"   .++++++++",
"  .+++++++++",
"  .+++++++++",
" .++++++++++",
" .++++++++++",
" .++++++++++",
".+++++++++++",
".+++++++++++",
".+++++++++++",
".+++++++++++",
".+++++++++++",
".+++++++++++",
".+++++++++++",
".+++++++++++",
".+++++++++++",
".+++++++++++",
".+++++++++++",
".+++++++++++",
".+++++++++++",
".+++++++++++",
".+++++++++++",
".+++++++++++",
".+++++++++++",
".+++++++++++",
".+++++++++++",
".+++++++++++",
".+++++++++++",
".+++++++++++",
".+++++++++++",
".+++++++++++",
".+++++++++++",
".@@@@@@@@@@@"};
