/* XPM */
static char * top_right_active_xpm[] = {
"12 38 4 1",
" 	c None",
".	c #DCDCDD",
"+	c #EBEBED",
"@	c #DCDCDE",
"            ",
"...         ",
"+++..       ",
"+++++.      ",
"++++++.     ",
"+++++++.    ",
"++++++++.   ",
"+++++++++.  ",
"+++++++++.  ",
"++++++++++. ",
"++++++++++. ",
"++++++++++. ",
"+++++++++++.",
"+++++++++++.",
"+++++++++++.",
"+++++++++++.",
"+++++++++++.",
"+++++++++++.",
"+++++++++++.",
"+++++++++++.",
"+++++++++++.",
"+++++++++++.",
"+++++++++++.",
"+++++++++++.",
"+++++++++++.",
"+++++++++++.",
"+++++++++++.",
"+++++++++++.",
"+++++++++++.",
"+++++++++++.",
"+++++++++++.",
"+++++++++++.",
"+++++++++++.",
"+++++++++++.",
"+++++++++++.",
"+++++++++++.",
"+++++++++++.",
"@@@@@@@@@@@."};
